HIERARCHY
ROOT root
{
	OFFSET	0	13.1	24.9
	CHANNELS 6  Xposition Yposition Zposition Xrotation Yrotation Zrotation
	JOINT spine_1
	{
		OFFSET	0	9.99999	0
		CHANNELS 3  Xrotation Yrotation Zrotation
		JOINT spine_2
		{
			OFFSET	0	112	-10
			CHANNELS 3  Xrotation Yrotation Zrotation
			JOINT spine_3
			{
				OFFSET	0	206.5	19.3
				CHANNELS 3  Xrotation Yrotation Zrotation
				JOINT spine_4
				{
					OFFSET	0	110.4	14.6
					CHANNELS 3  Xrotation Yrotation Zrotation
					JOINT neck_1
					{
						OFFSET	0	71.8	-50.3
						CHANNELS 3  Xrotation Yrotation Zrotation
						JOINT neck_2
						{
							OFFSET	0	86.2	-25.8
							CHANNELS 3  Xrotation Yrotation Zrotation
							JOINT head_ee
							{
								OFFSET	0	179.8	-8.7
								CHANNELS 3  Xrotation Yrotation Zrotation
								End Site
								{
									OFFSET	1	0	0
								}
							}
						}
					}
					JOINT left_clavicle
					{
						OFFSET	-43.2	22.4	-70.8
						CHANNELS 3  Xrotation Yrotation Zrotation
						JOINT left_shoulder
						{
							OFFSET	-93.9	-5.79999	48.7
							CHANNELS 3  Xrotation Yrotation Zrotation
							JOINT left_elbow
							{
								OFFSET	-291.4	-30.8	15.2
								CHANNELS 3  Xrotation Yrotation Zrotation
								JOINT left_lowarm_twist
								{
									OFFSET	-110.7	-3.89999	13.6
									CHANNELS 3  Xrotation Yrotation Zrotation
									JOINT left_hand
									{
										OFFSET	-110.7	-3.89999	13.6
										CHANNELS 3  Xrotation Yrotation Zrotation
										JOINT left_ee
										{
											OFFSET	-80.8	-5.10001	12.1
											CHANNELS 3  Xrotation Yrotation Zrotation
											End Site
											{
												OFFSET	1	0	0
											}
										}
									}
								}
							}
						}
					}
					JOINT right_clavicle
					{
						OFFSET	43.2	22.4	-70.8
						CHANNELS 3  Xrotation Yrotation Zrotation
						JOINT right_shoulder
						{
							OFFSET	93.9	-5.79999	48.7
							CHANNELS 3  Xrotation Yrotation Zrotation
							JOINT right_elbow
							{
								OFFSET	291.4	-30.8	15.2
								CHANNELS 3  Xrotation Yrotation Zrotation
								JOINT right_lowarm_twist
								{
									OFFSET	110.7	-3.89999	13.6
									CHANNELS 3  Xrotation Yrotation Zrotation
									JOINT right_hand
									{
										OFFSET	110.7	-3.89999	13.6
										CHANNELS 3  Xrotation Yrotation Zrotation
										JOINT right_ee
										{
											OFFSET	80.8	-5.10001	12.1
											CHANNELS 3  Xrotation Yrotation Zrotation
											End Site
											{
												OFFSET	1	0	0
											}
										}
									}
								}
							}
						}
					}
				}
			}
		}
	}
	JOINT left_hip
	{
		OFFSET	-82.8	-127.5	0.300001
		CHANNELS 3  Xrotation Yrotation Zrotation
		JOINT left_knee
		{
			OFFSET	-28.2	-396.7	2.2
			CHANNELS 3  Xrotation Yrotation Zrotation
			JOINT left_ankle
			{
				OFFSET	-11.7	-411.3	35.4
				CHANNELS 3  Xrotation Yrotation Zrotation
				JOINT left_toes
				{
					OFFSET	0	-60	-88.6
					CHANNELS 3  Xrotation Yrotation Zrotation
					JOINT left_foot_ee
					{
						OFFSET	-22.5	-16.5	-42.2
						CHANNELS 3  Xrotation Yrotation Zrotation
						End Site
						{
							OFFSET	1	0	0
						}
					}
				}
			}
		}
	}
	JOINT right_hip
	{
		OFFSET	82.8	-127.5	0.300001
		CHANNELS 3  Xrotation Yrotation Zrotation
		JOINT right_knee
		{
			OFFSET	28.2	-396.7	2.2
			CHANNELS 3  Xrotation Yrotation Zrotation
			JOINT right_ankle
			{
				OFFSET	11.7	-411.3	35.4
				CHANNELS 3  Xrotation Yrotation Zrotation
				JOINT right_toes
				{
					OFFSET	0	-60	-88.6
					CHANNELS 3  Xrotation Yrotation Zrotation
					JOINT right_foot_ee
					{
						OFFSET	22.5	-16.5	-42.2
						CHANNELS 3  Xrotation Yrotation Zrotation
						End Site
						{
							OFFSET	1	0	0
						}
					}
				}
			}
		}
	}
}
MOTION
Frames: 5
Frame Time: 0.02
1187.07923326 756.292 -1696.37155495 -4.67709183429 31.8787466656 -1.98359847345 -1.73548 0.41967 1.98483 -1.73334 0.292546 2.0075 -1.72075 -0.196657 2.01915 -1.72642 0.12463 2.02487 -1.1458 7.12637 1.2717 -1.06577 11.7826 2.20217 -0.0 0.0 -0.0 5.54229 20.9358 10.4988 -17.1762 -24.3508 60.1945 0.802626 -21.6825 0.153711 -3.55928 -0.138926 0.43315 2.75805 29.4537 27.4138 -0.0 0.0 -0.0 10.3452 21.909 -20.0286 -7.52682 27.6254 -49.3696 1.30529 32.8852 -0.385237 -37.5181 2.69116 -3.87677 -1.88054 13.0256 18.5012 0.0 0.0 0.0 24.4752 5.19745 3.80491 -60.5759 -2.26249 8.58859 24.7994 19.43 -3.39072 -6.18124 0.0 0.0 -0.0 0.0 -0.0 21.1851 27.6939 1.39294 -22.657 -0.254626 -3.44496 20.7918 -7.05907 2.82837 14.7023 -0.0 -0.0 0.0 0.0 0.0 
1159.215921 754.507 -1708.8088928 -4.69384676265 33.4573668037 -2.60156806829 -1.48344 0.37197 1.87691 -1.48152 0.251806 1.89677 -1.47126 -0.201423 1.90278 -1.4763 0.101557 1.91071 0.101845 5.68709 0.365223 0.170019 9.82998 0.984891 -0.0 0.0 -0.0 5.78024 20.0905 10.8944 -19.5588 -23.8589 61.8714 0.72015 -19.6334 0.124609 -3.11441 -0.120091 0.379487 2.87243 30.2917 28.2596 -0.0 0.0 -0.0 10.1841 22.1125 -19.6497 -6.65538 24.637 -48.2588 1.60279 38.4458 -0.558902 -36.4169 2.57841 -3.79162 -1.81027 14.3959 18.5855 0.0 0.0 0.0 27.9054 8.34829 4.28202 -61.3963 -2.35263 8.67745 21.8838 17.4659 -3.01185 -7.6161 0.0 0.0 -0.0 0.0 -0.0 17.6363 26.0263 4.23818 -21.1158 -0.280708 -3.20991 22.6033 -12.1793 3.06115 14.702 -0.0 -0.0 0.0 0.0 0.0 
1139.91208365 751.21 -1721.23115043 -4.1932932076 36.4210666944 -2.87548672741 -1.32112 0.274879 1.89374 -1.31914 0.15384 1.90739 -1.31228 -0.293943 1.89088 -1.31727 0.00831802 1.91356 0.280899 4.3912 -2.92905 0.403703 10.2128 -2.72065 -0.0 0.0 -0.0 5.7491 21.0255 10.8011 -21.257 -22.9761 60.9839 0.693805 -18.9674 0.115902 -2.93889 -0.112776 0.358276 2.83011 29.2575 27.8308 -0.0 0.0 -0.0 9.33993 22.2119 -17.7537 -5.96428 25.542 -47.2927 1.60523 38.4883 -0.560421 -36.3272 2.5693 -3.78459 -1.86142 13.8049 18.6974 0.0 0.0 0.0 29.6766 16.1949 1.03548 -59.7565 -2.17375 8.49857 20.8791 17.6047 -2.88783 -7.55789 0.0 0.0 -0.0 0.0 -0.0 14.5628 25.2548 5.73812 -21.9981 -0.266551 -3.34455 27.8325 -5.08874 3.65288 15.2533 -0.0 -0.0 0.0 0.0 0.0 
1113.6691443 746.747 -1728.07164249 -3.55200853526 37.445035537 -3.37494468603 -1.44219 0.538945 1.82419 -1.44044 0.421796 1.85477 -1.4248 -0.0246832 1.90195 -1.42974 0.27595 1.88199 0.353396 4.38462 -2.65215 0.466605 9.97245 -2.42748 -0.0 0.0 -0.0 5.74251 22.3578 10.7205 -21.4668 -22.5572 61.7497 0.6351 -17.4642 0.0975492 -3.29235 -0.127575 0.400968 2.35934 29.4615 24.9702 -0.0 0.0 -0.0 9.56146 22.1371 -18.2539 -3.76013 24.3117 -46.6779 1.6073 38.5243 -0.561711 -35.4216 2.47793 -3.71282 -1.91178 13.2175 18.8045 0.0 0.0 0.0 32.6639 10.7653 2.22116 -56.2189 -1.80583 8.09587 17.7977 17.9363 -2.49676 -8.76316 0.0 0.0 -0.0 0.0 -0.0 12.3285 24.6287 6.99545 -21.1805 -0.27974 -3.2198 29.5046 -5.22025 3.83541 15.0333 -0.0 -0.0 0.0 0.0 0.0 
1099.43437546 744.969 -1741.05862332 -4.25975560155 39.0725391625 -2.87920280595 -1.31261 0.278621 1.80026 -1.31082 0.16352 1.81434 -1.30405 -0.262615 1.80267 -1.30858 0.0253295 1.82151 0.539253 3.26729 -3.69169 0.660794 8.84167 -3.681 -0.0 0.0 -0.0 5.18177 23.479 9.86714 -22.4086 -22.2002 61.9929 0.695883 -19.0201 0.116578 -3.33537 -0.129394 0.406158 2.51544 30.0696 26.0297 -0.0 0.0 -0.0 10.1067 21.9391 -19.4906 -2.47309 24.1019 -44.503 1.6627 39.4735 -0.596572 -34.6562 2.4016 -3.65105 -1.97522 12.0995 18.7752 0.0 0.0 0.0 33.1016 13.6099 0.426124 -53.2143 -1.51348 7.73678 17.0893 18.7722 -2.41105 -10.0819 0.0 0.0 -0.0 0.0 -0.0 11.2838 23.1597 7.02188 -20.2267 -0.292875 -3.07404 30.0282 -4.28369 3.89309 14.8076 -0.0 -0.0 0.0 0.0 0.0 
